<svg viewBox="0 0 502 688" fill="none" xmlns="http://www.w3.org/2000/svg">
<g id="logo">
<path id="Subtract" fill-rule="evenodd" clip-rule="evenodd" d="M382.633 301.796L365.915 315.314L374.403 325.812L381.699 317.34L397.103 336.391L387.292 341.752L396.095 352.639L412.888 338.418L410.373 335.307L435.256 315.187L411.678 286.027L390.682 303.003C389.232 304.39 385.592 306.091 382.633 301.796ZM412.241 304.218L416.642 309.662L400.313 322.865L394.968 316.256C395.542 316.435 397.155 316.416 399.022 314.907L412.241 304.218Z" fill="#14A4E0"/>
<path id="Vector 1" d="M0.0917969 444C5.0123 578.975 114.081 686.46 249.5 687C385.477 687.543 495.959 579.535 500.908 444H397.5C406.5 469.333 414.1 530.1 372.5 570.5L367 532C361.5 546 341.5 575.2 305.5 580C260.5 586 252.5 610 250.5 614C245.666 604.333 228 584 196 580C164 576 140 546.333 132 532L127 571C89.3997 534.6 95.6664 471.167 103.5 444H0.0917969Z" fill="#E34021"/>
<path id="Subtract_2" fill-rule="evenodd" clip-rule="evenodd" d="M118 101H239V83.5C220.758 78.9599 207 61.5821 207 42C207 18.804 225.804 0 249 0C272.196 0 291.5 18.804 291.5 42C291.5 61.5821 278.131 78.9599 260 83.5V101H381.5V120L260 132.5V183.5H239V132.5L118 120V101ZM250 24C239.507 24 231 32.5066 231 43C231 53.4934 239.507 62 250 62C260.493 62 269 53.4934 269 43C269 32.5066 260.493 24 250 24Z" fill="#14A4E0"/>
<path id="Vector 2" d="M125 563.5C93.4 524.7 100.5 467.667 108 444C115.2 466 143.333 487.5 156.5 495.5L140 505C173.5 542 197 540 207 540C215 540 221 536.333 223 534.5C233.8 491.7 238.833 357.667 240 296H260C260 392 271 495 276.5 534.5C280.1 537.7 288.333 539.167 292 539.5C326 541.9 351.5 517.5 360 505L343.5 495.5C365.5 483.1 386 456 393.5 444C412.3 508.8 389 550.667 375 563.5L370 523.5C363.5 534.667 343.7 560.2 316.5 573C313.7 574.389 299 577.579 292 579C264 585 252.333 600.5 250 607.5C247.667 600.667 235.8 585.4 207 579C200 577.5 185.2 574.1 182 572.5C161.6 564.9 138.5 536.667 129.5 523.5L125 563.5Z" fill="#15A4DE"/>
<g id="Group 18">
<path id="Subtract_3" fill-rule="evenodd" clip-rule="evenodd" d="M112.694 327.74C120.391 317.635 118.262 303.068 107.937 295.204C97.6126 287.339 83.0031 289.155 75.3058 299.26C67.6085 309.365 69.7383 323.932 80.0627 331.796C90.3871 339.661 104.997 337.845 112.694 327.74ZM103.944 321.075C105.952 318.439 103.305 313.046 98.0334 309.03C92.7614 305.014 86.8597 303.895 84.8517 306.531C82.8437 309.167 85.4898 314.56 90.7618 318.576C96.0339 322.592 101.936 323.711 103.944 321.075Z" fill="#14A4E0"/>
</g>
<g id="Group 19">
<path id="Subtract_4" fill-rule="evenodd" clip-rule="evenodd" d="M324.733 275.793C336.42 280.769 350.016 275.122 355.1 263.181C360.185 251.239 354.832 237.525 343.144 232.549C331.457 227.573 317.861 233.219 312.777 245.161C307.693 257.102 313.045 270.817 324.733 275.793ZM329.042 265.672C332.091 266.97 336.667 263.079 339.263 256.981C341.859 250.884 341.492 244.888 338.444 243.59C335.395 242.292 330.818 246.183 328.222 252.28C325.626 258.378 325.993 264.374 329.042 265.672Z" fill="#14A4E0"/>
</g>
<path id="Vector 3" d="M144.393 267.433C138.497 257.092 136.909 245.223 150.374 237.546C164.82 229.309 171.864 233.912 177.29 241.768L164.007 249.342C164.007 249.342 161.035 244.129 157.56 246.111C154.954 247.597 153.217 248.587 156.189 253.8L162.13 264.22C164.609 268.568 166.347 267.577 168.953 266.091C172.221 264.227 169.949 259.762 169.949 259.762L183.231 252.188C187.23 260.861 187.603 269.27 173.159 277.506C160.129 284.936 150.289 277.773 144.393 267.433Z" fill="#14A4E0"/>
<path id="Subtract_5" fill-rule="evenodd" clip-rule="evenodd" d="M267 226C267 216 256 216 256 216H228V259H256.5C256.5 259 268.5 258.5 268.5 247C268.5 238 259.5 237 259.5 237V236C259.5 236 267 236 267 226ZM243 225C243 225 251 224 251 229.5C251 235 243 234 243 234V225ZM243.5 241.5C243.5 241.5 251.5 240.5 251.5 246C251.5 251.5 243.5 250.5 243.5 250.5V241.5Z" fill="#14A4E0"/>
<path id="Vector 1_2" fill-rule="evenodd" clip-rule="evenodd" d="M249.578 187.002C109.698 187.56 -3.40804 302.664 0.0784978 442.502H108.078C102.984 361.706 168.623 292.928 249.578 292.502C330.935 292.074 397.698 361.305 392.578 442.502H501.078C504.579 302.119 390.004 186.442 249.578 187.002ZM21.0785 427.502C21.0785 314.087 125.165 206.044 249.578 205.502C374.554 204.958 480.078 312.526 480.078 427.502H410.578C410.578 388.502 374.554 274.958 249.578 275.502C125.165 276.044 90.0785 391.002 90.0785 427.502H21.0785Z" fill="#14A4E0"/>
</g>
</svg>
